<svg xmlns="http://www.w3.org/2000/svg" width="256" height="256" viewBox="0 0 100 100"><rect width="100" height="100" rx="50" fill="#000000"></rect><path fill="#be7925" d="M37.99 24.55L37.99 24.55L28.35 75.59Q26.86 83.05 26.86 87.80L26.86 87.80Q26.86 88.89 28.69 89.77Q30.52 90.65 32.29 90.93L32.29 90.93L34.19 91.20Q34.46 91.20 34.46 91.74L34.46 91.74Q34.46 93.23 33.64 94.86L33.64 94.86Q21.15 94.18 19.53 94.18L19.53 94.18Q19.25 94.18 4.59 94.86L4.59 94.86Q4.32 94.59 4.32 93.78L4.32 93.78Q4.32 91.20 5.27 91.20L5.27 91.20Q6.90 91.20 10.16 90.32Q13.42 89.43 13.96 88.21L13.96 88.21Q16.00 83.60 17.49 75.18L17.49 75.18L27.13 24.96Q28.62 17.49 28.62 12.47L28.62 12.47Q28.62 10.97 25.70 9.89Q22.78 8.80 21.02 8.80L21.02 8.80Q20.75 8.80 20.75 8.12L20.75 8.12Q20.75 6.22 21.83 5.14L21.83 5.14Q23.46 5.27 28.28 5.61Q33.10 5.95 36.49 5.95L36.49 5.95Q39.75 5.95 44.84 5.54Q49.93 5.14 50.88 5.14L50.88 5.14L50.88 5.54Q50.88 8.80 49.93 8.80L49.93 8.80Q48.85 8.80 45.38 9.89Q41.92 10.97 41.52 11.92L41.52 11.92Q39.75 15.73 37.99 24.55ZM33.24 50.20L33.24 50.20Q39.48 46.40 50 36.43Q60.52 26.45 70.02 16.00L70.02 16.00Q70.16 15.86 70.97 14.98Q71.79 14.10 72.40 13.42Q73.01 12.74 73.55 11.86Q74.09 10.97 74.09 10.57L74.09 10.57Q74.09 9.35 71.72 8.80Q69.34 8.26 67.58 8.26L67.58 8.26Q67.17 8.26 67.17 7.44L67.17 7.44Q67.17 6.22 67.85 5.14L67.85 5.14Q69.48 5.27 72.13 5.48Q74.77 5.68 76.94 5.82Q79.12 5.95 81.15 5.95L81.15 5.95Q84.41 5.95 89.64 5.54Q94.86 5.14 95.68 5.14L95.68 5.14Q95.68 8.26 94.86 8.26L94.86 8.26Q85.36 9.35 80.47 14.23L80.47 14.23L47.35 47.35Q46.67 48.03 46.67 48.98L46.67 48.98Q46.67 50.07 47.49 51.15L47.49 51.15L75.18 84.68Q77.49 87.53 82.51 89.09Q87.53 90.65 89.43 90.65L89.43 90.65Q89.70 90.65 89.70 91.47L89.70 91.47Q89.70 92.96 89.03 94.32L89.03 94.32Q82.10 94.73 78.85 94.73L78.85 94.73Q74.50 94.73 70.77 93.37Q67.04 92.01 65.47 90.79Q63.91 89.57 63.10 88.48L63.10 88.48Q36.09 54.14 33.24 50.20Z"></path></svg>